<?xml version="1.0" encoding="utf-8"?>
<!-- Generator: Adobe Illustrator 24.0.1, SVG Export Plug-In . SVG Version: 6.00 Build 0)  -->
<svg version="1.1" id="Capa_1" xmlns="http://www.w3.org/2000/svg" xmlns:xlink="http://www.w3.org/1999/xlink" x="0px" y="0px"
	 viewBox="0 0 301.22 301.22" style="enable-background:new 0 0 301.22 301.22;" xml:space="preserve">
<g>
	<path d="M142.09,277.5l0.02,10c0.01,5.52,4.5,9.99,10.02,9.98l139.36-0.26c5.52-0.01,9.99-4.5,9.98-10.02l-0.02-10
		c-0.01-5.52-4.5-9.99-10.02-9.98l-139.36,0.26C146.55,267.49,142.08,271.98,142.09,277.5z"/>
	<path d="M170.79,234.45l120.59-0.22c5.52-0.01,9.99-4.5,9.98-10.02l-0.02-10c-0.01-5.52-4.5-9.99-10.02-9.98l-120.59,0.22
		c-5.52,0.01-9.99,4.5-9.98,10.02l0.02,10C160.78,229.99,165.27,234.46,170.79,234.45z"/>
	<path d="M189.45,171.41l101.8-0.19c5.52-0.01,9.99-4.5,9.98-10.02l-0.02-10c-0.01-5.52-4.5-9.99-10.02-9.98l-101.8,0.19
		c-5.52,0.01-9.99,4.5-9.98,10.02l0.02,10C179.44,166.95,183.93,171.42,189.45,171.41z"/>
	<path d="M208.1,101.38l83.02-0.15c5.52-0.01,9.99-4.5,9.98-10.02l-0.02-10c-0.01-5.52-4.5-9.99-10.02-9.98l-83.02,0.15
		c-5.52,0.01-9.99,4.5-9.98,10.02l0.02,10C198.09,96.92,202.58,101.39,208.1,101.38z"/>
	<path d="M226.77,38.34l64.24-0.12c5.52-0.01,9.99-4.5,9.98-10.02l-0.02-10c-0.01-5.52-4.5-9.99-10.02-9.98l-64.24,0.12
		c-5.52,0.01-9.99,4.5-9.98,10.02l0.02,10C216.76,33.88,221.24,38.35,226.77,38.34z"/>
	<path d="M2.81,84.62l7.08,7.06c1.88,1.87,4.42,2.92,7.08,2.92s5.19-1.06,7.07-2.94l34.33-34.46l0.42,225.46
		c0.01,5.52,4.5,9.99,10.02,9.98l10-0.02c5.52-0.01,9.99-4.5,9.98-10.02L88.36,57.14l34.46,34.33c1.88,1.87,4.42,2.92,7.08,2.92
		c2.65,0,5.19-1.06,7.07-2.94l7.06-7.08c3.9-3.91,3.89-10.24-0.03-14.14L80.34,6.8c-1.96-1.95-4.52-2.92-7.08-2.92
		c-2.56,0-5.12,0.99-7.07,2.94L2.78,70.48C-1.12,74.39-1.11,80.72,2.81,84.62z"/>
</g>
</svg>
